<svg width="80" height="80" viewBox="0 0 80 80" fill="none" xmlns="http://www.w3.org/2000/svg">
<g clip-path="url(#clip0_1413_31720)">
<path d="M37.8275 76.8776C37.7302 74.6402 37.6978 74.5105 36.9196 74.4133C36.4656 74.3484 35.9468 74.1539 35.7522 73.9917C35.5577 73.8296 34.3904 73.5054 33.1582 73.2459C30.4021 72.6623 26.1867 71.3004 25.1816 70.6843C24.76 70.4249 23.6251 69.7764 22.6199 69.2252C20.2529 67.9606 19.7989 67.6039 16.297 64.1344C10.4928 58.3951 7.31515 52.0073 6.18026 43.8685L5.95328 42.0851L3.26197 41.9878L0.603088 41.8906V39.8153V37.7077H3.1647C4.59142 37.7077 5.82358 37.578 5.92086 37.4159C6.01813 37.2862 6.24511 36.0864 6.47209 34.757C7.34758 29.0825 9.71463 23.6351 13.3787 18.9009C18.7613 11.8971 27.1271 7.19537 36.2062 6.09291L37.8923 5.86593V3.14219V0.418457H40.0324H42.1401L42.0752 2.81794C42.0428 4.11495 42.1076 5.34712 42.2373 5.54167C42.3346 5.7038 43.2101 5.9632 44.1504 6.09291C55.4669 7.45477 65.4864 14.4587 70.5771 24.6078C71.8093 27.0397 73.5603 32.0657 73.5603 33.1681C73.5603 33.6221 73.7873 34.4003 74.0467 34.8867C74.3061 35.4055 74.5655 36.1837 74.6303 36.6701C74.76 37.5131 74.8249 37.5456 77.0622 37.6428L79.3969 37.7401V39.8153V41.8906L77.0622 41.9878L74.6952 42.0851L74.5979 43.3821C74.5331 44.0955 74.3385 44.744 74.1764 44.8737C73.9818 44.971 73.6576 46.0086 73.3982 47.1759C71.6148 55.6714 66.1997 63.6156 58.9364 68.3821C56.3748 70.0358 52.9053 71.7544 50.8625 72.3705C50.0519 72.5974 49.0791 72.9217 48.6576 73.0838C48.236 73.2459 47.3605 73.3756 46.6472 73.3756C45.9663 73.3756 45.188 73.5702 44.9286 73.8296C44.6692 74.089 43.9883 74.3484 43.3722 74.4133L42.2698 74.543L42.1725 76.8776L42.0752 79.2122H40H37.9247L37.8275 76.8776ZM37.8923 62.4483C37.8923 58.2006 38.022 54.5365 38.1842 54.3095C38.3463 54.0177 38.9948 53.9204 40.1945 53.9852L41.9455 54.0825L42.1076 61.9619C42.2049 66.8581 42.3995 69.8089 42.594 69.8089C43.4371 69.8413 46.6148 69.3873 47.6199 69.0955C51.0246 68.0579 54.1375 66.6312 56.8612 64.8478C59.3255 63.2265 63.6381 58.8815 65.2918 56.3523C67.6589 52.7207 69.3774 48.0838 69.8638 43.9658L70.0908 41.923H62.5032C58.3203 41.923 54.7535 41.7933 54.559 41.6636C54.0726 41.3393 53.7808 38.9074 54.1699 38.2589C54.4293 37.7725 55.3048 37.7077 62.2762 37.7077H70.0908L69.8962 36.1837C69.2477 31.3523 67.8858 27.6558 65.2594 23.5378C60.8171 16.5987 51.284 10.6325 43.7289 10.1137L42.2698 9.98396L42.1076 17.9282L41.9455 25.8724H40H38.0545L37.9572 17.9606L37.8923 10.0488L35.9468 10.2758C33.677 10.5352 28.8132 12.0592 26.4137 13.2913C20.6096 16.2096 15.6485 21.3977 12.795 27.4937C10.8495 31.5793 9.64978 37.7077 10.7522 37.7077C10.9468 37.7077 14.5136 37.7725 18.5992 37.805L26.057 37.8698V39.8153V41.7609L18.2101 41.8581L10.3307 41.923V43.3173C10.3631 46.8192 12.8275 53.3692 15.6485 57.2926C17.594 60.0164 21.8742 64.0047 24.6303 65.626C28.0998 67.7012 33.6122 69.5819 37.6653 70.1007C37.795 70.1331 37.8923 66.6636 37.8923 62.4483Z" fill="#FE0000"/>
<path d="M37.0817 50.7753C35.2335 50.3862 33.0285 49.5756 33.0285 49.3486C33.0285 49.1865 32.834 49.0568 32.5746 49.0568C31.9909 49.0568 29.9805 46.787 29.3645 45.4576C29.0726 44.8415 28.7159 43.3823 28.5214 42.1826C27.8729 38.3888 29.3645 33.5574 31.6667 31.9362C34.8768 29.634 37.179 29.18 45.1881 29.3421L51.0246 29.4394L51.1219 31.3201L51.2192 33.1683H45.2853C40.0648 33.1683 39.1245 33.2656 37.5681 33.8493C34.3904 35.049 33.3528 36.573 33.3528 40.1398C33.3528 42.7663 33.904 44.0957 35.4604 45.3927C37.2114 46.8519 38.7678 47.1113 45.5123 47.1113H51.5434L51.4462 48.9919L51.3489 50.8402L44.5396 50.8726C40.8106 50.905 37.4384 50.8726 37.0817 50.7753Z" fill="#FE0000"/>
<path d="M43.6965 66.8904C43.1128 66.5013 43.6317 65.95 44.799 65.7555C46.6796 65.3988 46.8093 65.3664 47.7821 65.107C49.3385 64.6854 52.8081 63.0317 54.3645 61.9617C56.6343 60.3729 60.2335 56.8385 61.6278 54.7633C63.3463 52.2665 64.7082 49.2185 65.454 46.2354C66.1349 43.5116 66.1998 43.3819 66.8807 43.6413C67.3995 43.8359 67.3671 44.0629 66.3619 47.5972C64.3515 54.6335 58.9689 61.1186 52.4189 64.3288C48.6576 66.2094 44.572 67.4092 43.6965 66.8904Z" fill="#666666"/>
<path d="M31.7639 65.9175C26.1543 64.0044 22.393 61.378 18.4047 56.5466C17.2698 55.1847 14.6109 50.2236 14.3839 49.0239C14.3191 48.6996 14.0921 48.1484 13.8975 47.7917C13.703 47.4026 13.6057 47.1108 13.703 47.1108C13.8003 47.1108 13.6706 46.4298 13.4112 45.6192C12.9896 44.1601 13.0545 43.2197 13.5733 43.2197C13.9948 43.2197 14.2542 43.771 14.4163 45.0356C14.4812 45.6841 14.7082 46.4947 14.9027 46.819C15.0648 47.1432 15.1297 47.435 15.0324 47.435C14.9351 47.435 15.0648 47.8566 15.3567 48.4078C15.6161 48.9266 15.8431 49.4454 15.8431 49.5427C15.8431 49.64 16.3619 50.71 16.9779 51.9422C18.1128 54.2444 20.3178 57.1951 22.166 58.9461C23.917 60.5673 25.2464 61.7022 25.441 61.7022C25.5383 61.7022 26.2192 62.1238 26.965 62.6101C29.1051 64.0369 32.4124 65.269 34.0661 65.269C34.9741 65.269 36.3684 66.1769 36.1089 66.5985C35.7847 67.0848 34.6498 66.9227 31.7639 65.9175Z" fill="#666666"/>
<path d="M13.1193 35.8268C12.9572 35.5674 13.5408 33.2003 14.3839 30.736C17.0428 22.9863 23.3333 16.9228 31.5694 14.1017C33.2879 13.5181 35.9144 12.9344 36.1089 13.129C36.498 13.5181 35.8495 14.3611 35.1686 14.3611C34.2931 14.3611 30.856 15.4636 28.8132 16.4039C23.6576 18.771 18.7289 23.7645 16.4591 28.8877C15.3242 31.4493 14.9027 32.7139 14.3839 35.2107C14.2218 36.0213 13.476 36.4104 13.1193 35.8268Z" fill="#666666"/>
<path d="M66.1349 35.6322C65.9403 35.3728 65.6809 34.6595 65.6161 34.011C65.1297 30.282 62.2114 25.094 58.5149 21.4299C57.1206 20.0356 55.7588 18.9007 55.5318 18.9007C55.2724 18.9007 55.0778 18.771 55.0778 18.5765C55.0778 17.8955 49.3385 15.3015 46.0311 14.5233C43.5344 13.9072 43.3074 13.7451 43.7289 13.0641C44.0208 12.6102 43.8911 12.5778 47.9442 13.7775C49.144 14.1018 55.1427 16.9228 55.4021 17.2794C55.4994 17.3767 56.083 17.8307 56.6991 18.2522C58.3528 19.3871 61.4008 22.5972 62.9248 24.8346C64.2542 26.7801 66.4916 31.7088 66.1997 32.0006C66.1025 32.0654 66.1997 32.4221 66.3943 32.7788C66.8807 33.6543 67.1077 35.6971 66.7834 35.9241C66.6213 35.9889 66.3294 35.8916 66.1349 35.6322Z" fill="#666666"/>
</g>
<defs>
<clipPath id="clip0_1413_31720">
<rect width="80" height="80" fill="white"/>
</clipPath>
</defs>
</svg>
