<svg width="44" height="44" viewBox="0 0 44 44" fill="none" xmlns="http://www.w3.org/2000/svg">
<path d="M22 44C34.1503 44 44 34.1503 44 22C44 9.84974 34.1503 0 22 0C9.84974 0 0 9.84974 0 22C0 34.1503 9.84974 44 22 44Z" fill="#009393"/>
<path fill-rule="evenodd" clip-rule="evenodd" d="M24.6428 23.902V23.8992C24.4915 23.9102 23.7119 23.957 21.9725 23.957C20.5838 23.957 19.6062 23.9157 19.2624 23.8992V23.9033C13.9164 23.6682 9.92616 22.7373 9.92616 21.6236C9.92616 20.5112 13.9164 19.5803 19.2624 19.3411V22.9766C19.6117 23.0013 20.6127 23.0605 21.9959 23.0605C23.6555 23.0605 24.4874 22.9917 24.6428 22.978V19.3438C29.9778 19.5817 33.9584 20.5126 33.9584 21.6236C33.9584 22.7373 29.9778 23.6655 24.6428 23.902ZM24.6428 18.9657V15.7125H32.087V10.7515H11.8182V15.7125H19.2624V18.9643C13.2124 19.2421 8.66254 20.4411 8.66254 21.8766C8.66254 23.3121 13.2124 24.5097 19.2624 24.7888V35.2141H24.6428V24.7861C30.6832 24.5083 35.222 23.3107 35.222 21.8766C35.222 20.4425 30.6832 19.2448 24.6428 18.9657Z" fill="white"/>
</svg>
